<?xml version="1.0" standalone="no"?>
<!DOCTYPE svg PUBLIC "-//W3C//DTD SVG 20010904//EN"
 "http://www.w3.org/TR/2001/REC-SVG-20010904/DTD/svg10.dtd">
<svg version="1.0" xmlns="http://www.w3.org/2000/svg"
 width="200.000000pt" height="200.000000pt" viewBox="0 0 200.000000 200.000000"
 preserveAspectRatio="xMidYMid meet">
<metadata>
Created by potrace 1.14, written by Peter Selinger 2001-2017
</metadata>
<g transform="translate(0.000000,200.000000) scale(0.100000,-0.100000)"
fill="#000000" stroke="none">
<path d="M992 1904 c-54 -93 -56 -94 -130 -94 -77 0 -173 -19 -252 -49 -74
-28 -87 -38 -74 -51 7 -7 28 -3 70 14 97 40 304 74 304 50 0 -18 -225 -376
-247 -394 -23 -18 -28 -19 -41 -6 -12 12 -10 20 17 59 53 78 39 100 -44 66
-45 -18 -57 -20 -70 -9 -21 17 -19 24 15 63 32 37 39 67 16 67 -7 0 -30 -7
-51 -16 -65 -27 -90 7 -35 48 30 22 40 48 18 48 -6 0 -26 -11 -45 -26 -23 -18
-33 -33 -33 -53 0 -36 32 -65 65 -59 25 5 34 -5 15 -17 -17 -11 -11 -61 10
-80 19 -18 63 -18 104 0 19 8 19 7 -2 -27 -29 -47 -28 -74 6 -95 15 -9 29 -18
30 -19 2 -1 -22 -46 -54 -99 -45 -75 -55 -101 -48 -113 6 -10 108 -75 227
-147 119 -71 216 -133 217 -137 0 -5 -180 -8 -401 -8 -316 0 -400 -3 -397 -12
4 -10 176 -13 818 -13 642 0 814 3 818 13 3 9 -81 12 -396 12 l-400 0 58 96
c32 53 61 98 64 102 3 3 15 -3 25 -12 29 -27 63 -16 91 28 l25 39 6 -43 c10
-71 77 -96 118 -44 15 18 21 22 21 11 0 -25 29 -47 60 -47 48 0 60 30 60 143
0 127 -22 232 -71 336 l-39 84 35 57 c56 93 57 92 -111 193 -132 79 -164 92
-164 68 0 -5 63 -46 140 -92 95 -57 139 -88 135 -97 -15 -41 -468 -783 -476
-780 -33 11 -428 255 -429 265 0 11 442 757 462 778 6 7 30 -1 68 -22 67 -37
70 -38 70 -19 0 16 -109 86 -134 86 -9 0 -29 -21 -44 -46z m461 -492 c40 -89
58 -168 64 -279 7 -125 1 -155 -30 -151 -12 2 -23 10 -24 18 -9 75 -15 90 -33
90 -13 0 -23 -13 -32 -42 -29 -85 -69 -75 -78 20 -4 48 -8 57 -25 60 -16 2
-26 -10 -48 -53 -15 -30 -33 -55 -42 -55 -21 0 -29 45 -13 77 31 61 221 373
228 373 4 0 19 -26 33 -58z"/>
<path d="M1350 1325 c0 -2 6 -29 14 -58 8 -30 12 -73 9 -96 -5 -33 -3 -41 10
-41 10 0 18 12 23 35 11 60 -16 165 -42 165 -8 0 -14 -2 -14 -5z"/>
<path d="M1055 1840 c-7 -12 2 -30 16 -30 12 0 12 27 0 35 -5 3 -12 1 -16 -5z"/>
<path d="M1106 1784 c-28 -25 -35 -26 -96 -12 -12 3 -242 -361 -322 -509 l-22
-41 24 -20 c24 -19 32 -69 16 -103 -6 -13 13 -29 94 -78 l102 -61 30 25 c25
22 40 26 76 23 45 -3 45 -3 79 52 37 62 39 70 18 70 -8 0 -26 -20 -41 -45 -25
-43 -28 -45 -74 -45 -31 0 -55 -6 -71 -19 l-25 -19 -76 46 -76 45 5 38 c4 28
0 47 -16 72 l-21 35 149 249 150 249 35 -4 c24 -3 47 3 72 17 l36 22 74 -43
74 -43 0 -46 c0 -30 7 -55 19 -71 l20 -24 -109 -183 c-99 -166 -115 -201 -91
-201 4 0 61 87 125 194 l117 194 -27 27 c-24 24 -26 32 -21 75 l6 48 -94 56
c-51 31 -97 56 -102 56 -4 0 -21 -12 -37 -26z"/>
<path d="M680 1682 c-25 -10 -46 -25 -48 -35 -4 -21 10 -22 51 0 18 9 57 17
87 19 38 2 55 7 55 16 0 20 -92 20 -145 0z"/>
<path d="M1380 1635 c0 -8 7 -15 15 -15 8 0 15 7 15 15 0 8 -7 15 -15 15 -8 0
-15 -7 -15 -15z"/>
<path d="M1126 1588 c-20 -28 -20 -48 -3 -48 13 0 37 40 37 60 0 17 -18 11
-34 -12z"/>
<path d="M950 1476 c-6 -8 -17 -13 -25 -10 -18 7 -30 -15 -16 -29 6 -6 11 -21
11 -34 0 -13 9 -32 21 -44 20 -20 29 -21 84 -5 11 3 28 0 38 -8 16 -12 16 -17
6 -35 -20 -31 -6 -34 40 -10 30 15 39 25 32 32 -6 6 -11 21 -11 32 0 36 -33
58 -75 51 -43 -8 -96 17 -76 37 15 15 14 37 -3 37 -7 0 -19 -6 -26 -14z m44
-97 c-6 -11 -44 8 -44 21 0 6 10 5 25 -2 13 -6 22 -15 19 -19z m101 1 c3 -5 2
-10 -4 -10 -5 0 -13 5 -16 10 -3 6 -2 10 4 10 5 0 13 -4 16 -10z"/>
<path d="M897 1211 c-13 -22 -14 -32 -6 -37 14 -8 52 33 46 49 -7 21 -23 16
-40 -12z"/>
<path d="M642 1146 c1 -10 8 -17 13 -17 15 1 12 24 -3 29 -9 3 -13 -2 -10 -12z"/>
<path d="M962 948 c5 -15 28 -18 29 -3 0 6 -7 12 -17 13 -10 3 -15 -1 -12 -10z"/>
<path d="M705 696 c-50 -19 -100 -72 -114 -123 -6 -22 -11 -135 -11 -265 0
-193 2 -229 16 -242 18 -19 20 -19 45 -6 18 10 19 24 19 228 1 241 7 287 45
320 36 31 121 31 160 0 50 -39 55 -67 55 -312 0 -213 1 -226 19 -236 25 -13
27 -13 45 6 14 13 16 49 16 240 0 244 6 278 54 309 32 21 104 22 144 1 47 -24
52 -56 52 -307 0 -194 2 -230 16 -243 19 -19 25 -20 48 -3 15 11 17 35 14 268
l-3 256 -27 40 c-64 96 -216 110 -308 26 -33 -29 -41 -32 -46 -19 -4 9 -26 28
-50 42 -54 32 -134 40 -189 20z"/>
<path d="M1556 700 c-39 -10 -91 -42 -113 -70 -24 -29 -34 -88 -23 -129 20
-75 79 -110 281 -165 84 -23 123 -54 127 -98 6 -73 -41 -108 -145 -108 -79 0
-121 13 -193 61 -49 34 -63 39 -75 29 -29 -24 -17 -57 32 -95 114 -87 334 -93
421 -12 79 73 67 189 -26 248 -45 29 -74 39 -215 80 -42 12 -89 32 -102 45
-48 44 -25 118 43 139 40 12 149 6 188 -10 20 -8 52 -28 70 -45 39 -33 45 -35
62 -18 34 34 -6 91 -90 128 -55 24 -183 34 -242 20z"/>
<path d="M144 690 c-12 -4 -31 -21 -43 -36 -20 -26 -21 -36 -21 -305 0 -268 1
-279 20 -289 14 -8 26 -8 40 0 18 10 20 21 20 145 l0 135 133 0 c137 0 157 5
157 42 0 29 -41 38 -171 38 l-119 0 0 88 c0 48 5 94 10 102 7 12 42 16 171 20
137 4 164 8 172 22 8 12 7 21 -2 32 -11 14 -40 16 -180 15 -91 0 -176 -4 -187
-9z"/>
</g>
</svg>
